Widespread Panic
1998-04-18
Washington Street
Athens, GA

Source: SBD > DAT > CD > CD > EAC > shn
By: Tony Gardner
**********08/26/12*************
SHN > WAV > Rename > FLAC(8)
*******************************

Disc 1 - Set 1
1  Disco
2  Tall Boy
3  Love Tractor
4  Aunt Avis
5  Diner
6  Walkin' (For Your Love)
7  Henry Parsons Died
8  All Time Low
9  The Take Out
10 Porch Song
11 Blackout Blues

Disc 2 - Set 2
1 One Arm Steve
2 Chilly Water
3 Greta
4 Christmas Katie
5 Radio Child
6 Arleen
7 Papa's Home
8 Drums
9 Papa's Home

Disc 3 - Set 2 (cont.)
1 Pilgrims
2 Fishwater
Encore:
3 West Virginia
4 Space Wrangler
5 Ain't Life Grand

[First 'All Time Low', First 'Christmas Katie', First 'One Arm Steve'; Free show; 'Light Fuse, Get Away' album release party; Approximately 100,000 in attendance; Slow 'Porch Song']

wsp1998-04-18d1t01.flac:18e316e906337134d08e3ec22f5190df
wsp1998-04-18d1t02.flac:a8d39337ada7cf308290ecf097fa1b58
wsp1998-04-18d1t03.flac:4b6011d9d66ce20c51c099ab793d07b5
wsp1998-04-18d1t04.flac:d5e8c5943cf7892e316fdd3bfba2e664
wsp1998-04-18d1t05.flac:3811559dd25791b4d368c7522004872e
wsp1998-04-18d1t06.flac:36ccba165d4793c6575dd54bbd35d27a
wsp1998-04-18d1t07.flac:f6e5f8e3cec7e68778a29fb4f09ecdf4
wsp1998-04-18d1t08.flac:20132e0b22eed0d8836d6be85bb1ad29
wsp1998-04-18d1t09.flac:1528b1d0203d049ddcdbcebf1a4520b0
wsp1998-04-18d1t10.flac:35096db6aaf2102ebc03e1459faa6f26
wsp1998-04-18d1t11.flac:158f61d1d3c6d4b0ed44e2a8bfafd2c7
wsp1998-04-18d2t01.flac:3b67774119d75511d3cb80398c33c10e
wsp1998-04-18d2t02.flac:5335dca0c7c49b647fa6c85d400ee724
wsp1998-04-18d2t03.flac:2a8b804f2f3142725f35dfae928b2b48
wsp1998-04-18d2t04.flac:1dc28e52f0d531847c3889a0883c127e
wsp1998-04-18d2t05.flac:d052cc95e0240caafc854ccd696ae9f6
wsp1998-04-18d2t06.flac:9b882568bcae344729979ade0ae2e0cd
wsp1998-04-18d2t07.flac:7f627228845336d94643606f4eadae34
wsp1998-04-18d2t08.flac:ac3cc7399b32beb04646c6800a9e5b4c
wsp1998-04-18d2t09.flac:ed622ce3cfdcd94d5a7f563f370c8cda
wsp1998-04-18d3t01.flac:c5e09a1bf99ae3eae1982a5100d7470d
wsp1998-04-18d3t02.flac:cd723280bfa89e3128665a2e3144c73e
wsp1998-04-18d3t03.flac:21f8c39cf973753c9719c6cdebb6c8c4
wsp1998-04-18d3t04.flac:ca203d6091d2bc380ee034006f1c5ae3
wsp1998-04-18d3t05.flac:03d71f4ef587f3fa962e964b7c638ff1

    length     expanded size    cdr  WAVE problems  fmt   ratio  filename
     5:00.45       53025884 B   ---   --   ---xx   flac  0.6092  wsp1998-04-18d1t01.flac
     7:54.70       83778284 B   ---   --   ---xx   flac  0.6289  wsp1998-04-18d1t02.flac
     6:45.06       71456156 B   ---   --   ---xx   flac  0.5561  wsp1998-04-18d1t03.flac
     6:46.01       71620796 B   ---   --   ---xx   flac  0.5883  wsp1998-04-18d1t04.flac
    14:21.14      151913372 B   ---   --   ---xx   flac  0.6012  wsp1998-04-18d1t05.flac
     5:20.54       56575052 B   ---   --   ---xx   flac  0.6069  wsp1998-04-18d1t06.flac
     5:50.67       61897628 B   ---   --   ---xx   flac  0.6270  wsp1998-04-18d1t07.flac
     5:20.72       56617388 B   ---   --   ---xx   flac  0.5587  wsp1998-04-18d1t08.flac
     2:29.45       26389484 B   ---   --   ---xx   flac  0.5458  wsp1998-04-18d1t09.flac
     7:40.62       81289868 B   ---   --   ---xx   flac  0.5789  wsp1998-04-18d1t10.flac
     6:27.10       68290364 B   ---   --   ---xx   flac  0.5671  wsp1998-04-18d1t11.flac
     3:55.27       41517548 B   ---   --   ---xx   flac  0.5587  wsp1998-04-18d2t01.flac
     9:11.57       97330508 B   ---   --   ---xx   flac  0.6133  wsp1998-04-18d2t02.flac
    11:19.65      119928524 B   ---   --   ---xx   flac  0.5927  wsp1998-04-18d2t03.flac
     8:00.64       84822572 B   ---   --   ---xx   flac  0.5641  wsp1998-04-18d2t04.flac
     8:28.00       89611244 B   ---   --   ---xx   flac  0.6219  wsp1998-04-18d2t05.flac
    10:31.29      111376652 B   ---   --   ---xx   flac  0.6359  wsp1998-04-18d2t06.flac
    11:13.37      118804268 B   ---   --   ---xx   flac  0.6055  wsp1998-04-18d2t07.flac
     9:09.69       97005932 B   ---   --   ---xx   flac  0.5602  wsp1998-04-18d2t08.flac
     2:11.16       23146076 B   ---   --   ---xx   flac  0.5159  wsp1998-04-18d2t09.flac
     8:33.17       90533228 B   ---   --   ---xx   flac  0.5984  wsp1998-04-18d3t01.flac
     9:34.12      101281868 B   ---   --   ---xx   flac  0.6341  wsp1998-04-18d3t02.flac
     1:00.07       10600508 B   ---   --   ---xx   flac  0.5503  wsp1998-04-18d3t03.flac
     9:42.41      102761276 B   ---   --   ---xx   flac  0.6092  wsp1998-04-18d3t04.flac
     5:28.62       58005068 B   ---   --   ---xx   flac  0.6162  wsp1998-04-18d3t05.flac
   182:18.49     1929579548 B                            0.5972  (25 files)